<?xml version="1.0" encoding="UTF-8"?>
<svg version="1.1" xmlns="http://www.w3.org/2000/svg" width="512" height="512">
<path d="M0 0 C168.96 0 337.92 0 512 0 C512 168.96 512 337.92 512 512 C343.04 512 174.08 512 0 512 C0 343.04 0 174.08 0 0 Z " fill="#222222" transform="translate(0,0)"/>
<path d="M0 0 C11.96737203 9.79148621 15.47357673 24.62065375 19.02734375 39.09375 C19.40462261 40.59394621 19.7828663 42.09390006 20.16200256 43.59362793 C21.15114903 47.51837827 22.12602043 51.44653864 23.0980835 55.37554932 C23.87366414 58.49995791 24.65961089 61.621711 25.44609737 64.74338913 C29.15858742 79.48135459 32.77824345 94.23543903 36.1875 109.046875 C38.84595482 120.58536483 41.68108669 132.07134752 44.59765625 143.546875 C44.80938414 144.37994171 45.02111202 145.21300842 45.23925591 146.07131958 C46.7596414 152.04857607 48.28554359 158.02441931 49.8125 164 C51.55696334 170.82721636 53.29929103 177.65496682 55.03515625 184.484375 C55.34923306 185.72000938 55.34923306 185.72000938 55.66965485 186.98060608 C58.74154635 199.08458025 61.64810836 211.21684674 64.41088867 223.39550781 C66.39111052 232.11083757 68.5236454 240.78840586 70.68261719 249.4609375 C71.3888249 252.30568959 72.08492739 255.15281423 72.78125 258 C73.24157359 259.85431917 73.70248808 261.70849179 74.1640625 263.5625 C74.46577866 264.80640503 74.46577866 264.80640503 74.77359009 266.07543945 C77.51658177 277.983183 77.51658177 277.983183 84.75 287.25 C88.93937085 289.31410607 92.96674832 289.66390327 97.5625 289.875 C98.25537109 289.91367187 98.94824219 289.95234375 99.66210938 289.9921875 C101.35767015 290.08573568 103.05379712 290.16892364 104.75 290.25 C104.7481014 289.63577171 104.7462028 289.02154342 104.74424666 288.38870215 C104.63241952 252.00557873 104.54659927 215.62248068 104.49467335 179.23922066 C104.48841962 174.87318458 104.48194803 170.50714885 104.4753418 166.14111328 C104.47337447 164.8372838 104.47337447 164.8372838 104.4713674 163.50711432 C104.44959537 149.42243463 104.41016399 135.33785672 104.36423602 121.25323746 C104.31752131 106.80714596 104.28971518 92.36110786 104.27955753 77.91494393 C104.27268799 68.99680144 104.2509713 60.07894656 104.21041767 51.16089258 C104.18404077 45.050095 104.17598748 38.93944667 104.18249311 32.82859626 C104.18570397 29.29988897 104.18069295 25.77168515 104.15397263 22.24306679 C104.12524345 18.42135738 104.13502699 14.6003093 104.14872742 10.77850342 C104.12688111 9.09758154 104.12688111 9.09758154 104.10459346 7.38270164 C104.1775385 -0.10310411 104.1775385 -0.10310411 107.08836079 -3.39240646 C115.8514287 -7.86208977 124.52771358 -7.80168077 133.7421875 -4.89453125 C136.7583502 -3.17520115 137.92640836 -1.77214048 139.75 1.25 C140.35238509 5.13553586 140.28053348 8.99337001 140.24447632 12.91844177 C140.24930515 14.11340037 140.25413398 15.30835897 140.25910914 16.53952843 C140.26843282 19.85360251 140.25980557 23.16675102 140.24358058 26.48074043 C140.23041966 30.05629332 140.2403254 33.63179183 140.24734497 37.20735168 C140.25743068 44.21323583 140.24614141 51.21893118 140.22764437 58.22479188 C140.20686115 66.39103433 140.20701726 74.55723609 140.20798953 82.72350002 C140.2089911 97.3052084 140.19066438 111.88682913 140.16162109 126.46850586 C140.13349238 140.59840493 140.11927758 154.72822682 140.12060547 168.8581543 C140.12072534 170.16157545 140.12072534 170.16157545 140.12084763 171.49132835 C140.12092834 172.35880929 140.12100905 173.22629023 140.1210922 174.12005848 C140.12247541 190.22239776 140.11066553 206.32470438 140.09278577 222.42703305 C140.08677268 228.10969117 140.08462892 233.79234325 140.08372116 239.4750042 C140.08235049 246.41418399 140.07333391 253.35330881 140.05505554 260.29246532 C140.04587904 263.82834375 140.03970625 267.36415236 140.04224396 270.90004349 C140.04487032 274.74631834 140.0318406 278.59245487 140.01742554 282.43870544 C140.02052274 283.53845386 140.02361995 284.63820228 140.026811 285.77127641 C139.96505586 295.8157228 139.85924412 306.3648344 134.75 315.25 C132.8125 316.89453125 132.8125 316.89453125 130.75 318.0625 C130.069375 318.46082031 129.38875 318.85914063 128.6875 319.26953125 C124.34925384 321.46489372 120.34562803 321.4111562 115.6015625 321.41796875 C114.79318939 321.42129715 113.98481628 321.42462555 113.15194702 321.42805481 C111.43545092 321.4331205 109.71894497 321.43546325 108.00244141 321.43530273 C105.41942199 321.43746285 102.83684858 321.45554798 100.25390625 321.47460938 C68.15178679 321.58432641 68.15178679 321.58432641 58.5 312.46875 C52.3531773 304.67545693 48.75251414 294.94934146 45.83203125 285.55859375 C45.5766156 284.7415094 45.32119995 283.92442505 45.05804443 283.08258057 C42.3775448 274.3163194 40.26565055 265.43071875 38.19708252 256.50390625 C34.36609225 239.99519274 30.35206762 223.53467989 26.1796875 207.109375 C25.98196243 206.3309449 25.78423737 205.5525148 25.58052063 204.75049591 C23.60717604 196.98657429 21.62522902 189.22486698 19.63721275 181.46469021 C16.25612999 168.26119926 12.88117079 155.06471938 9.875 141.76953125 C6.06820352 124.95277411 1.78279627 108.25338743 -2.45507812 91.54125977 C-3.64697477 86.84061405 -4.83330813 82.13858388 -6.0181675 77.43616009 C-6.94580352 73.75753227 -7.87660149 70.07970993 -8.80830002 66.40210915 C-9.24701629 64.66868512 -9.68473452 62.93500814 -10.12135696 61.20105553 C-13.4261218 42.15411687 -13.4261218 42.15411687 -23.25 27.25 C-27.86520857 25.65854877 -32.1718109 25.12374435 -37.0234375 24.703125 C-38.49562744 24.57405762 -38.49562744 24.57405762 -39.99755859 24.44238281 C-40.74086426 24.37889648 -41.48416992 24.31541016 -42.25 24.25 C-42.24848112 24.8617326 -42.24696224 25.4734652 -42.24539733 26.10373515 C-42.15592125 62.34497685 -42.08727211 98.58620223 -42.04573868 134.82753174 C-42.04073574 139.17725767 -42.03555847 143.52698338 -42.03027344 147.87670898 C-42.0292242 148.74267572 -42.02817495 149.60864245 -42.02709392 150.5008506 C-42.00967983 164.52986994 -41.97813662 178.55882384 -41.94138882 192.58780434 C-41.9040073 206.97853232 -41.88177006 221.36922598 -41.87364602 235.76000053 C-41.86815245 244.64277948 -41.85078996 253.52537348 -41.81833413 262.40809552 C-41.79722066 268.49599517 -41.79079275 274.58379894 -41.79599449 280.67173257 C-41.79856124 284.18631639 -41.79457537 287.7005766 -41.7731781 291.21510315 C-41.7501621 295.023258 -41.75803089 298.83098899 -41.76898193 302.63920593 C-41.75733057 303.75301673 -41.7456792 304.86682753 -41.73367476 306.01439017 C-41.79202418 313.48841392 -41.79202418 313.48841392 -44.14114761 317.39486408 C-48.90339796 321.5841671 -53.63167064 321.58880682 -59.6875 321.5625 C-60.42548828 321.57861328 -61.16347656 321.59472656 -61.92382812 321.61132812 C-66.75425443 321.61562184 -70.09677557 320.9596884 -74.25 318.25 C-77.06515729 315.19109885 -77.62531866 313.19070787 -77.62752342 309.06929588 C-77.63534666 308.01551321 -77.64316991 306.96173054 -77.65123022 305.87601507 C-77.64119197 304.14112433 -77.64119197 304.14112433 -77.63095093 302.3711853 C-77.6356309 301.14159045 -77.64031087 299.91199559 -77.64513266 298.64514029 C-77.65504217 295.2300341 -77.65145705 291.81542149 -77.64217401 288.40034509 C-77.63539726 284.71782736 -77.64585819 281.03535334 -77.65411377 277.35284424 C-77.66747041 270.13631392 -77.6645641 262.91987709 -77.65587585 255.70334308 C-77.64910414 249.83585764 -77.64818037 243.96839842 -77.6514473 238.10091019 C-77.651907 237.26618028 -77.65236669 236.43145038 -77.65284032 235.57142562 C-77.6537995 233.87567506 -77.65477214 232.17992451 -77.6557581 230.48417397 C-77.66431846 214.57182122 -77.65446938 198.65952026 -77.638357 182.74717601 C-77.62496798 169.10242076 -77.62726896 155.45774213 -77.64111328 141.81298828 C-77.65718315 125.96736471 -77.66347888 110.12178665 -77.65427649 94.27615607 C-77.65332086 92.58476552 -77.65237775 90.89337497 -77.6514473 89.20198441 C-77.65098447 88.36981018 -77.65052164 87.53763595 -77.65004479 86.68024432 C-77.64745802 80.82488782 -77.65181946 74.96956024 -77.65888596 69.11420822 C-77.66731744 61.97066346 -77.66498687 54.82721754 -77.64904372 47.68368404 C-77.64118084 44.04093278 -77.63803514 40.39834605 -77.64799118 36.75559616 C-77.65863678 32.80054408 -77.64589053 28.84575901 -77.63095093 24.89071655 C-77.63764309 23.74750706 -77.64433526 22.60429757 -77.65123022 21.42644536 C-77.59290348 13.45324071 -76.63480589 6.25306702 -72.5 -0.6875 C-57.87883133 -14.09023795 -16.4934994 -8.88111506 0 0 Z " fill="#FDFDFD" transform="translate(225.25,98.75)"/>
<path d="M0 0 C0.33 0 0.66 0 1 0 C1 13.53 1 27.06 1 41 C-12.53 41 -26.06 41 -40 41 C-36.77794772 39.38897386 -33.66489916 38.09649079 -30.3125 36.8125 C-16.32964928 30.99481758 -7.86955879 20.70813891 -2 7 C-1.17794005 4.65968578 -0.55034658 2.42152494 0 0 Z " fill="#000000" transform="translate(511,471)"/>
<path d="M0 0 C1.61102614 3.22205228 2.90350921 6.33510084 4.1875 9.6875 C10.00518242 23.67035072 20.29186109 32.13044121 34 38 C36.34031422 38.82205995 38.57847506 39.44965342 41 40 C41 40.33 41 40.66 41 41 C27.47 41 13.94 41 0 41 C0 27.47 0 13.94 0 0 Z " fill="#000000" transform="translate(0,471)"/>
<path d="M0 0 C13.53 0 27.06 0 41 0 C41 13.53 41 27.06 41 41 C39.38897386 37.77794772 38.09649079 34.66489916 36.8125 31.3125 C30.99481758 17.32964928 20.70813891 8.86955879 7 3 C4.65968578 2.17794005 2.42152494 1.55034658 0 1 C0 0.67 0 0.34 0 0 Z " fill="#000000" transform="translate(471,0)"/>
<path d="M0 0 C13.53 0 27.06 0 41 0 C37.77794772 1.61102614 34.66489916 2.90350921 31.3125 4.1875 C17.32964928 10.00518242 8.86955879 20.29186109 3 34 C2.17794005 36.34031422 1.55034658 38.57847506 1 41 C0.67 41 0.34 41 0 41 C0 27.47 0 13.94 0 0 Z " fill="#000000" transform="translate(0,0)"/>
</svg>
